<?xml version="1.0" encoding="UTF-8"?>
<svg version="1.1" xmlns="http://www.w3.org/2000/svg" width="48" height="48">
<path d="M0 0 C0.99 0.66 1.98 1.32 3 2 C3 2.66 3 3.32 3 4 C3.59167969 3.96519531 4.18335937 3.93039062 4.79296875 3.89453125 C9.6816646 3.72705554 13.06835539 3.70249162 17 7 C17 7.66 17 8.32 17 9 C17.886875 8.896875 18.77375 8.79375 19.6875 8.6875 C23 9 23 9 25.875 10.875 C28.46774109 14.68785454 28.73324063 17.0886984 28.4765625 21.62109375 C28 24 28 24 26 27.0625 C22.97929265 29.0133735 22.34347134 29.16767968 19 29.25 C16.92423036 29.26420077 16.92423036 29.26420077 15 30 C12.80168993 32.77430958 11.36699416 35.74681679 10 39 C9.67 39 9.34 39 9 39 C9 36.36 9 33.72 9 31 C7.02 31 5.04 31 3 31 C3 30.34 3 29.68 3 29 C2.25234375 29.04640625 1.5046875 29.0928125 0.734375 29.140625 C-7.22538383 29.43234391 -7.22538383 29.43234391 -10.6875 27.5 C-12.63479485 23.79086695 -12.33152074 21.17716129 -12 17 C-11.505 15.515 -11.505 15.515 -11 14 C-11.33 13.34 -11.66 12.68 -12 12 C-12.56872038 4.9478673 -12.56872038 4.9478673 -10.5 1.5 C-6.77354157 -0.73587506 -4.32088243 -0.41151261 0 0 Z " fill="#DDDFE1" transform="translate(16,5)"/>
<path d="M0 0 C0.99 0.66 1.98 1.32 3 2 C3 2.99 3 3.98 3 5 C1.8553125 5.680625 1.8553125 5.680625 0.6875 6.375 C-2.17543181 7.79899196 -2.17543181 7.79899196 -3.4375 10.625 C-5 13 -5 13 -8.1875 13.8125 C-9.115625 13.874375 -10.04375 13.93625 -11 14 C-12.60420518 10.79158965 -12.47462745 7.4806013 -12 4 C-8.99025369 -1.01624385 -5.3242936 -0.50707558 0 0 Z " fill="#F19900" transform="translate(16,5)"/>
<path d="M0 0 C0.33 0 0.66 0 1 0 C1 2.64 1 5.28 1 8 C2.65 8 4.3 8 6 8 C7 11 7 11 6.00390625 13.26171875 C5.52824219 14.06222656 5.05257813 14.86273438 4.5625 15.6875 C4.08941406 16.49574219 3.61632813 17.30398437 3.12890625 18.13671875 C2.75636719 18.75160156 2.38382813 19.36648437 2 20 C1.67 20 1.34 20 1 20 C1 17.36 1 14.72 1 12 C-0.98 12 -2.96 12 -5 12 C-3.68938409 7.76570244 -2.05643741 3.92592596 0 0 Z " fill="#E97B05" transform="translate(24,24)"/>
<path d="M0 0 C-3.67832017 4.52615993 -7.41086363 8.39424999 -12 12 C-12.48 4.8 -12.48 4.8 -10.5 1.5 C-6.85991277 -0.68405234 -4.20345267 -0.28023018 0 0 Z " fill="#F4A700" transform="translate(16,5)"/>
<path d="M0 0 C0 0.99 0 1.98 0 3 C-0.763125 3.45375 -1.52625 3.9075 -2.3125 4.375 C-5.17150123 5.80625761 -5.17150123 5.80625761 -6.5 8.625 C-8 11 -8 11 -10.6875 11.8125 C-11.450625 11.874375 -12.21375 11.93625 -13 12 C-2.93659942 0 -2.93659942 0 0 0 Z " fill="#EE900A" transform="translate(19,7)"/>
<path d="M0 0 C1.32 0.33 2.64 0.66 4 1 C1.69 3.31 -0.62 5.62 -3 8 C-3.33 6.68 -3.66 5.36 -4 4 C-2.3125 1.6875 -2.3125 1.6875 0 0 Z " fill="#F8B800" transform="translate(8,5)"/>
<path d="M0 0 C1.32 0 2.64 0 4 0 C3.67 1.65 3.34 3.3 3 5 C1.68 5 0.36 5 -1 5 C-0.67 3.35 -0.34 1.7 0 0 Z " fill="#199BE0" transform="translate(15,41)"/>
<path d="M0 0 C1.32 0 2.64 0 4 0 C3.67 1.65 3.34 3.3 3 5 C1.68 5 0.36 5 -1 5 C-0.67 3.35 -0.34 1.7 0 0 Z " fill="#199BE0" transform="translate(32,40)"/>
</svg>